#!OML:ASF I:\golf\golf\golf 2\Subject 1\2002-09-07\Subject1.ASF
:FULLY-SPECIFIED
:DEGREES
154
root -7.93654 17.6763 1.96211 -13.2827 66.7906 -28.6627
lowerback 3.25429 -6.10509 -9.54925
upperback 5.41853 -8.15384 1.29262
thorax 5.444 -4.50964 6.42932
lowerneck -8.85502 14.025 2.80144
upperneck 25.1471 23.6801 -13.2946
head 11.7608 9.75654 -1.94971
rclavicle 1.04958e-013 1.90833e-014
rhumerus -7.88366 -5.18928 -91.4328
rradius 86.1743
rwrist -47.3249
rhand -57.9121 26.878
rfingers 7.12502
rthumb -30.162 -0.679762
lclavicle 1.04958e-013 1.90833e-014
lhumerus 78.3474 -61.9293 39.179
lradius 23.9987
lwrist -2.9903
lhand 165.073 195.411
lfingers 7.12502
lthumb -168.764 225.091
rfemur -33.3771 6.72999 25.64
rtibia 33.2321
rfoot -10.4277 8.75435
rtoes 11.6312
lfemur -13.2955 7.37262 5.80931
ltibia 21.9005
lfoot -9.89113 19.3047
ltoes -20.7401
155
root -7.92891 17.6745 2.00217 -13.0175 66.2576 -28.4214
lowerback 3.2626 -6.33161 -9.6354
upperback 5.35595 -8.45928 1.21243
thorax 5.43177 -4.6605 6.37465
lowerneck -7.94946 14.3234 3.26714
upperneck 23.7138 23.9808 -14.3544
head 11.2857 9.97406 -2.40421
rclavicle -8.42847e-014 -3.18055e-015
rhumerus -7.08384 -5.9049 -91.1839
rradius 87.0731
rwrist -44.2638
rhand -58.6012 24.6919
rfingers 7.12502
rthumb -30.8192 -2.74389
lclavicle -8.42847e-014 -3.18055e-015
lhumerus 78.9958 -61.2419 39.3896
lradius 24.0812
lwrist -3.72949
lhand 164.222 194.166
lfingers 7.12502
lthumb -169.585 223.888
rfemur -33.3756 7.18395 25.862
rtibia 33.3215
rfoot -10.5062 8.89345
rtoes 11.7844
lfemur -12.9038 7.35295 6.00868
ltibia 21.8002
lfoot -9.99583 19.9319
ltoes -20.1056
156
root -7.92131 17.6714 2.04231 -12.608 65.7398 -28.037
lowerback 3.25918 -6.4685 -9.75753
upperback 5.24706 -8.64474 1.09103
thorax 5.35187 -4.74704 6.30691
lowerneck -7.30522 14.5333 3.63299
upperneck 22.7872 24.1386 -14.8941
head 10.9563 10.1236 -2.66646
rclavicle 1.4551e-013 -2.22639e-014
rhumerus -6.42333 -6.43706 -90.9082
rradius 88.0396
rwrist -42.5483
rhand -58.8886 26.0266
rfingers 7.12502
rthumb -31.0932 -1.35703
lclavicle 1.4551e-013 -2.22639e-014
lhumerus 81.01 -60.813 38.0928
lradius 24.3191
lwrist -3.78272
lhand 163.131 193.132
lfingers 7.12502
lthumb -170.639 222.904
rfemur -33.3824 7.55002 26.032
rtibia 33.4046
rfoot -10.6178 9.10693
rtoes 11.144
lfemur -12.5258 7.31373 6.15143
ltibia 21.7289
lfoot -10.3455 20.3733
ltoes -18.0489
157
root -7.91351 17.6692 2.0789 -12.0835 65.227 -27.5928
lowerback 3.21713 -6.62886 -9.9267
upperback 5.10015 -8.8622 1.00341
thorax 5.27299 -4.85157 6.29534
lowerneck -6.95855 14.7643 3.86434
upperneck 22.3292 24.3927 -15.1636
head 10.8183 10.2798 -2.77593
rclavicle -2.54444e-014 2.8625e-014
rhumerus -5.72732 -6.77862 -90.6041
rradius 88.9817
rwrist -41.2675
rhand -58.9283 28.4267
rfingers 7.12502
rthumb -31.131 1.05028
lclavicle -2.54444e-014 2.8625e-014
lhumerus 82.6635 -60.2928 37.2577
lradius 24.5004
lwrist -4.07267
lhand 162.142 192.213
lfingers 7.12502
lthumb -171.592 222.026
rfemur -33.474 7.70241 26.2135
rtibia 33.498
rfoot -10.6587 9.54411
rtoes 11.1139
lfemur -12.1934 6.97141 6.26487
ltibia 21.6565
lfoot -10.8557 20.9856
ltoes -16.1719
158
root -7.9081 17.6652 2.1153 -11.5982 64.6538 -27.2811
lowerback 3.10988 -6.86616 -10.0628
upperback 4.96087 -9.17852 0.979268
thorax 5.26439 -5.00935 6.31479
lowerneck -7.01214 15.0963 3.85896
upperneck 22.2498 24.8531 -15.182
head 10.8554 10.4799 -2.69966
rclavicle -1.82087e-013 3.18055e-014
rhumerus -4.75432 -6.65175 -90.1364
rradius 89.7379
rwrist -39.8611
rhand -59.1505 30.2442
rfingers 7.12502
rthumb -31.3427 2.90863
lclavicle -1.82087e-013 3.18055e-014
lhumerus 83.5207 -59.5637 37.2254
lradius 24.6168
lwrist -4.62063
lhand 160.969 191.208
lfingers 7.12502
lthumb -172.725 221.063
rfemur -33.6666 7.94885 26.4468
rtibia 33.6019
rfoot -10.6078 9.90378
rtoes 11.5555
lfemur -11.9118 6.67333 6.42949
ltibia 21.5772
lfoot -11.1996 21.7426
ltoes -15.5759
159
root -7.90034 17.6592 2.15157 -10.9862 64.0218 -26.738
lowerback 3.02861 -7.07131 -10.1936
upperback 4.89557 -9.44653 0.901865
thorax 5.30177 -5.14462 6.27552
lowerneck -7.71867 15.4565 3.45242
upperneck 22.7883 25.3786 -14.5411
head 11.0954 10.6529 -2.2821
rclavicle 7.95139e-016 -2.54444e-014
rhumerus -3.66429 -6.32856 -89.5614
rradius 90.5632
rwrist -38.4573
rhand -59.7023 31.8308
rfingers 7.12502
rthumb -31.8683 4.59856
lclavicle 7.95139e-016 -2.54444e-014
lhumerus 84.1233 -58.7505 37.5126
lradius 24.7274
lwrist -5.29785
lhand 160.019 190.072
lfingers 7.12502
lthumb -173.642 219.957
rfemur -33.7606 8.27812 26.5777
rtibia 33.7035
rfoot -10.5275 10.2814
rtoes 12.2383
lfemur -11.5171 6.53214 6.49212
ltibia 21.5107
lfoot -11.5151 22.4022
ltoes -15.1745
160
root -7.88835 17.6496 2.18319 -10.7147 63.2663 -26.4692
lowerback 3.04737 -7.20311 -10.0615
upperback 4.82222 -9.62479 0.795462
thorax 5.20184 -5.21716 6.08883
lowerneck -8.16473 15.7416 3.25864
upperneck 23.102 25.7722 -14.1199
head 11.2463 10.7962 -2.00968
rclavicle -1.4392e-013 3.49861e-014
rhumerus -2.74099 -6.205 -89.0345
rradius 91.4763
rwrist -36.8907
rhand -60.2261 33.5291
rfingers 7.12502
rthumb -32.3671 6.39744
lclavicle -1.4392e-013 3.49861e-014
lhumerus 84.9159 -58.0546 37.5915
lradius 24.894
lwrist -5.77331
lhand 159.206 189.19
lfingers 7.12502
lthumb -174.427 219.097
rfemur -33.7291 8.68075 26.8489
rtibia 33.7922
rfoot -10.5787 10.7318
rtoes 12.6426
lfemur -10.9882 6.38213 6.71014
ltibia 21.4349
lfoot -11.9315 23.0534
ltoes -14.4923
161
root -7.88088 17.6448 2.20969 -10.0976 62.6141 -25.9221
lowerback 3.17796 -7.34782 -10.191
upperback 4.61598 -9.84383 0.749056
thorax 4.96327 -5.31334 6.12782
lowerneck -7.9535 15.9927 3.3906
upperneck 22.8027 26.0964 -14.3339
head 11.1811 10.9612 -2.06252
rclavicle -1.22451e-013 1.59028e-014
rhumerus -2.00452 -6.45682 -88.6268
rradius 92.3931
rwrist -35.0297
rhand -60.261 34.4805
rfingers 7.12502
rthumb -32.4003 7.35567
lclavicle -1.22451e-013 1.59028e-014
lhumerus 85.4885 -57.4253 38.0436
lradius 25.03
lwrist -6.20602
lhand 158.136 188.499
lfingers 7.12502
lthumb -175.459 218.43
rfemur -33.81 8.96641 26.9251
rtibia 33.8518
rfoot -10.7266 11.2309
rtoes 12.4664
lfemur -10.6277 6.2448 6.70403
ltibia 21.3874
lfoot -12.3148 23.6533
ltoes -13.7786
